<svg data-v-0dd9719b="" version="1.0" xmlns="http://www.w3.org/2000/svg" xmlns:xlink="http://www.w3.org/1999/xlink" width="100%" height="100%" viewBox="0 0 340.000000 250.000000" preserveAspectRatio="xMidYMid meet" color-interpolation-filters="sRGB" style="margin: auto;"> <rect data-v-0dd9719b="" x="0" y="0" width="100%" height="100%" fill="#fff" fill-opacity="1" class="background"></rect> <rect data-v-0dd9719b="" x="0" y="0" width="100%" height="100%" fill="url(#watermark)" fill-opacity="1" class="watermarklayer"></rect> <g data-v-0dd9719b="" fill="#333" class="icon-text-wrapper icon-svg-group iconsvg" transform="translate(66.2699966430664,97.64146614074707)"><g class="iconsvg-imagesvg" transform="translate(0,0)"><g><rect fill="#333" fill-opacity="0" stroke-width="2" x="0" y="0" width="60" height="54.71706716519995" class="image-rect"></rect> <svg x="0" y="0" width="60" height="54.71706716519995" filtersec="colorsb3301086231" class="image-svg-svg primary" style="overflow: visible;"><svg xmlns="http://www.w3.org/2000/svg" viewBox="0.007376670837402344 0.017479896545410156 109.63544464111328 99.98246765136719"><g fill-rule="evenodd"><path d="M46.12 21.84c-2.94-8.25-7.27-15.43-1.06-17.59C53.49 1.3 60.41-3 62.64 3.15c3 8.39 7.23 15.37 1.06 17.6L52.39 24.8c-10.91 3.9-8.55 23-5.62 31.19C54.16 76.67 23 87.73 15.59 67.14A16.58 16.58 0 0 1 25.61 46c3.09 0 23.98-14.41 20.51-24.16z" fill="#104e70"></path><path d="M83.51 43C82 51 84.92 71.28 93.82 73c8.39 1.62 17 1.62 15.69 8-1.83 9.17-1.67 16.89-8 15.7-8.37-1.59-16.91-1.65-15.69-8l2.28-11.82c2.18-11.39-15.46-19.05-24-20.7A16.53 16.53 0 0 1 51 36.77C55.1 15.24 87.68 21.51 83.51 43z" fill="#2491eb"></path><path d="M25.67 89.11c-6.16 7.08-10 13.8-14.81 9.58-7-6.13-13.74-9.91-9.57-14.79 4.8-5.62 9.76-14 14.8-9.58l9.08 7.9c8.74 7.57 24.23-3.87 29.9-10.44a16.58 16.58 0 0 1 23.38-1.65c16.57 14.44-5.21 39.37-21.72 25 2.5.04-23.48-14.74-31.06-6.02z" fill="#85c4f5"></path></g></svg></svg> <!----></g></g> <g transform="translate(67,3.6885337829589844)"><g data-gra="path-name" fill-rule="" class="tp-name iconsvg-namesvg"><g transform="scale(1)"><g><path d="M38.52-42.48L38.52-42.48Q38.28-39.42 38.19-36.6 38.1-33.78 38.1-32.28L38.1-32.28Q38.1-30.96 38.16-29.76 38.22-28.56 38.28-27.72L38.28-27.72 36.9-27.72Q35.94-32.76 34.47-35.7 33-38.64 30.96-39.87 28.92-41.1 26.16-41.1L26.16-41.1 24.78-41.1 24.78-6.84Q24.78-4.44 25.29-3.24 25.8-2.04 27.18-1.65 28.56-1.26 31.2-1.2L31.2-1.2 31.2 0Q29.34-0.06 26.25-0.12 23.16-0.18 19.8-0.18L19.8-0.18Q16.5-0.18 13.56-0.12 10.62-0.06 8.82 0L8.82 0 8.82-1.2Q11.52-1.26 12.9-1.65 14.28-2.04 14.76-3.24 15.24-4.44 15.24-6.84L15.24-6.84 15.24-41.1 13.92-41.1Q11.16-41.1 9.12-39.87 7.08-38.64 5.64-35.73 4.2-32.82 3.12-27.72L3.12-27.72 1.74-27.72Q1.86-28.56 1.89-29.76 1.92-30.96 1.92-32.28L1.92-32.28Q1.92-33.78 1.83-36.6 1.74-39.42 1.5-42.48L1.5-42.48Q4.26-42.42 7.53-42.36 10.8-42.3 14.1-42.3 17.4-42.3 20.04-42.3L20.04-42.3Q22.74-42.3 26.01-42.3 29.28-42.3 32.58-42.36 35.88-42.42 38.52-42.48ZM49.32-46.5L49.32-46.5Q51.84-46.5 53.31-45.27 54.78-44.04 54.78-41.88L54.78-41.88Q54.78-39.72 53.31-38.49 51.84-37.26 49.32-37.26L49.32-37.26Q46.8-37.26 45.33-38.49 43.86-39.72 43.86-41.88L43.86-41.88Q43.86-44.04 45.33-45.27 46.8-46.5 49.32-46.5ZM54-31.68L54-31.68 54-5.58Q54-3.06 54.87-2.16 55.74-1.26 57.84-1.26L57.84-1.26 57.84 0Q56.76-0.06 54.48-0.15 52.2-0.24 49.86-0.24L49.86-0.24Q47.52-0.24 45.12-0.15 42.72-0.06 41.52 0L41.52 0 41.52-1.26Q43.62-1.26 44.49-2.16 45.36-3.06 45.36-5.58L45.36-5.58 45.36-24.48Q45.36-27.18 44.55-28.47 43.74-29.76 41.52-29.76L41.52-29.76 41.52-31.02Q43.44-30.84 45.24-30.84L45.24-30.84Q47.76-30.84 49.95-31.05 52.14-31.26 54-31.68ZM72.6-40.86L72.6-40.86 72.6-31.02 79.68-31.02 79.68-29.82 72.6-29.82 72.6-5.58Q72.6-3.78 73.26-3.03 73.92-2.28 75.24-2.28L75.24-2.28Q76.32-2.28 77.4-3.09 78.48-3.9 79.32-5.88L79.32-5.88 80.34-5.34Q79.38-2.64 77.43-0.9 75.48 0.84 72.12 0.84L72.12 0.84Q70.14 0.84 68.64 0.33 67.14-0.18 66.12-1.2L66.12-1.2Q64.8-2.52 64.38-4.47 63.96-6.42 63.96-9.54L63.96-9.54 63.96-29.82 58.92-29.82 58.92-31.02 63.96-31.02 63.96-38.94Q66.48-38.94 68.61-39.39 70.74-39.84 72.6-40.86ZM111.42-31.68L111.42-31.68 111.42-6.54Q111.42-3.84 112.26-2.55 113.1-1.26 115.26-1.26L115.26-1.26 115.26 0Q113.4-0.18 111.54-0.18L111.54-0.18Q109.02-0.18 106.86 0 104.7 0.18 102.78 0.66L102.78 0.66 102.78-4.74Q101.34-1.74 98.79-0.45 96.24 0.84 93.12 0.84L93.12 0.84Q90.6 0.84 89.04 0.18 87.48-0.48 86.58-1.5L86.58-1.5Q85.56-2.64 85.14-4.5 84.72-6.36 84.72-9.3L84.72-9.3 84.72-24.48Q84.72-27.18 83.91-28.47 83.1-29.76 80.88-29.76L80.88-29.76 80.88-31.02Q82.8-30.84 84.6-30.84L84.6-30.84Q87.12-30.84 89.31-31.05 91.5-31.26 93.36-31.68L93.36-31.68 93.36-6.84Q93.36-5.34 93.63-4.2 93.9-3.06 94.68-2.43 95.46-1.8 96.96-1.8L96.96-1.8Q99.36-1.8 101.07-3.81 102.78-5.82 102.78-8.76L102.78-8.76 102.78-24.48Q102.78-27.18 101.97-28.47 101.16-29.76 98.94-29.76L98.94-29.76 98.94-31.02Q100.86-30.84 102.66-30.84L102.66-30.84Q105.18-30.84 107.37-31.05 109.56-31.26 111.42-31.68ZM129.78-31.86L129.78-31.86Q132.3-31.86 134.19-31.23 136.08-30.6 136.92-30L136.92-30Q138.96-28.62 139.44-31.8L139.44-31.8 140.7-31.8Q140.58-30.12 140.52-27.69 140.46-25.26 140.46-21.24L140.46-21.24 139.2-21.24Q138.9-23.46 138.06-25.62 137.22-27.78 135.63-29.16 134.04-30.54 131.52-30.54L131.52-30.54Q129.78-30.54 128.58-29.55 127.38-28.56 127.38-26.7L127.38-26.7Q127.38-24.9 128.46-23.55 129.54-22.2 131.25-20.97 132.96-19.74 134.82-18.36L134.82-18.36Q137.82-16.14 139.89-13.89 141.96-11.64 141.96-8.04L141.96-8.04Q141.96-5.34 140.4-3.33 138.84-1.32 136.29-0.24 133.74 0.84 130.62 0.84L130.62 0.84Q128.82 0.84 127.41 0.48 126 0.12 124.98-0.42L124.98-0.42Q124.2-0.78 123.51-1.11 122.82-1.44 122.22-1.68L122.22-1.68Q121.62-1.86 121.17-1.26 120.72-0.66 120.48 0.42L120.48 0.42 119.22 0.42Q119.34-1.5 119.4-4.26 119.46-7.02 119.46-11.58L119.46-11.58 120.72-11.58Q121.08-8.34 122.04-5.85 123-3.36 124.65-1.95 126.3-0.54 128.82-0.54L128.82-0.54Q130.38-0.54 131.7-1.53 133.02-2.52 133.02-4.8L133.02-4.8Q133.02-7.44 131.31-9.18 129.6-10.92 126.96-12.96L126.96-12.96Q125.04-14.52 123.33-16.05 121.62-17.58 120.54-19.41 119.46-21.24 119.46-23.58L119.46-23.58Q119.46-26.28 120.9-28.14 122.34-30 124.71-30.93 127.08-31.86 129.78-31.86Z" transform="translate(-1.5, 46.5)"></path></g> <!----> <!----> <!----> <!----> <!----> <!----> <!----></g></g> <!----></g></g><defs v-gra="od"></defs></svg>